<svg width="645" height="846" viewBox="0 0 645 846" fill="none" xmlns="http://www.w3.org/2000/svg">
<path fill-rule="evenodd" clip-rule="evenodd" d="M630.908 468.237C623.027 469.011 615.146 469.783 607.264 470.557C569.519 473.44 531.788 479.462 494.331 483.076C493.398 481.559 491.573 481.809 490.464 482.863C486.727 482.536 482.538 479.68 479.152 482.651C479.042 482.635 478.932 482.617 478.821 482.607C472.793 471.038 468.626 458.699 464.582 446.344C462 438.747 458.528 431.394 452.11 426.293C441.157 418.692 416.062 403.276 403.201 403.924C402.987 401.622 401.914 399.249 400.152 397.716C404.036 391.094 388.504 386.774 387.408 387.541C388.11 365.418 377.703 346.206 354.753 341.8C334.193 337.517 304.95 336.797 293.893 358.281C292.677 358.144 280.252 358.079 279.05 358.214C277.181 355.847 256.655 378.276 265.068 386.084C189.854 419.351 147.087 415.382 126.269 508.905C123.455 517.69 123.25 527.304 120.278 535.894C109.705 560.579 101.129 586.865 98.9947 613.725C93.84 615.045 93.2471 624.133 99.2179 625.447C101.499 625.95 103.406 626.637 105.069 627.938C103.769 649.95 109.093 700.232 112.448 700.077C119.288 721.844 149.8 727.987 171.402 720.338C167.678 727.342 171.402 731.747 171.402 735.489C249.129 738.43 334.116 736.736 411.822 740.769C421.762 740.627 432.217 743.21 442.021 741.723C448 740.29 448.01 730.89 441.946 729.728L468.445 723.973C467.853 723.75 479.369 716.091 488.072 701.78C496.174 685.77 490.66 666.446 494.331 649.031C523.001 646.687 552.145 645.684 580.501 640.83C584.367 652.396 601.104 638.563 606.424 632.999C606.417 632.99 606.411 632.982 606.404 632.973C608.979 632.269 611.043 629.856 611.113 627C612.918 624.42 613.297 620.785 611.566 618.292C619.502 572.505 631.6 525.756 635.973 479.539C637.519 479.197 638.975 478.519 640.209 477.475L640.109 477.375C642.2 475.044 642.607 471.021 639.121 469.04C636.309 467.441 633.96 467.937 630.908 468.237Z" fill="white"/>
<path fill-rule="evenodd" clip-rule="evenodd" d="M295.325 353.291C297.667 347.407 305.584 349.694 304.701 355.876C304.173 359.579 302.145 363.49 300.323 366.735C298.839 369.377 297.147 371.955 294.852 373.936C298.937 377.746 303.176 381.417 307.523 384.902C312.266 388.705 317.254 392.21 322.41 395.432C326.931 398.258 331.656 400.761 335.918 403.985C339.88 406.982 343.49 410.587 345.326 415.292C347.283 420.303 346.433 425.479 344.992 430.486L344.826 431.052C343.354 436.014 340.806 441.994 344.34 446.668C346.138 449.048 348.753 450.733 351.011 452.636C353.018 454.326 354.902 456.165 356.629 458.14C360.396 462.446 363.46 467.291 365.394 472.689L365.567 473.179C367.224 477.958 368.435 483.812 366.196 488.504C365.553 489.849 363.481 489.412 363.121 488.102C362.308 485.136 362.35 482.029 361.668 479.02C360.958 475.891 359.777 472.921 358.235 470.111C355.25 464.675 351.207 460.031 346.432 456.105L345.002 454.943C341.276 451.886 337.853 448.642 337.097 443.583C336.288 438.17 338.457 433.013 339.852 427.89C340.824 424.319 341.141 420.897 340.091 417.67C338.807 419.764 337.057 421.752 335.672 423.525C332.914 427.057 330.13 430.568 327.353 434.086C324.506 437.693 321.729 441.357 319.085 445.115C317.902 446.797 316.732 448.488 315.566 450.181C314.689 451.454 313.466 452.726 312.51 454.024C312.742 454.718 312.725 455.518 312.303 456.086C307.234 462.935 300.022 448.645 298.141 445.035C294.31 437.682 291.46 429.871 287.616 422.521C283.634 414.901 279.1 407.484 274.045 400.527C270.988 396.319 267.562 392.367 264.765 388.025C258.177 393.998 249.507 398.003 241.544 401.634C232.794 405.623 223.704 408.882 214.733 412.342L212.083 413.371C196.627 419.403 180.792 426.029 167.944 436.743C152.847 449.332 143.916 466.879 137.267 485.05C129.612 505.968 123.28 527.451 117.377 548.92C114.356 559.904 111.49 570.939 108.796 582.008C106.421 591.761 104.453 601.611 101.704 611.263C107.279 611.066 113.637 613.223 118.396 613.846C140.087 616.685 161.485 621.21 181.964 629.045C184.493 630.013 185.225 632.539 184.674 634.586C186.133 634.175 187.591 633.757 189.049 633.348C187.451 630.899 188.214 626.522 188.34 623.808L188.347 623.621C188.476 620.005 188.869 616.385 189.123 612.775C189.608 605.894 190.239 599.063 191.077 592.222L191.291 590.511C192.242 583.068 192.944 575.58 193.981 568.15L194.104 567.299C193.607 565.398 193.028 563.52 192.42 561.65C190.801 556.67 188.515 551.982 186.512 547.158C186.276 546.59 187.085 546.264 187.463 546.605C190.855 549.656 193.55 553.526 195.715 557.575C195.752 557.384 195.785 557.192 195.824 557.002L196.071 555.786C196.681 552.821 197.421 549.702 199.24 547.298C199.434 547.042 199.817 546.989 200 547.298C201.741 550.243 201.936 553.973 202.204 557.324C202.507 561.116 202.545 564.955 202.491 568.757C202.387 576.186 201.863 583.637 201.446 591.055C201.037 598.344 200.233 605.54 199.197 612.758L199 614.111C198.493 617.547 198.079 621.025 197.411 624.437L197.222 625.365C196.865 627.057 196.645 629.443 195.934 631.425C214.224 626.324 232.543 621.339 250.896 616.443C264.16 612.903 277.439 609.417 290.712 605.908C291.412 604.646 292.284 603.467 293.373 602.413C296.959 598.941 301.711 597.392 306.069 600.065C306.424 600.283 306.453 600.838 306.069 601.048C305.234 601.505 304.398 601.973 303.576 602.46L311.546 600.302C317.503 598.688 323.531 596.671 329.628 595.546C340.858 590.004 352.937 585.993 364.767 582.029L366.161 581.558C372.219 579.493 378.484 577.182 384.742 576.037C389.324 575.199 394.702 576.21 396.544 580.903C398.877 582.44 401.071 584.246 403.189 586.023C404.72 587.306 406.188 588.671 407.68 590L407.955 590.241C409.176 591.3 410.142 592.009 410.442 593.694C410.596 594.564 410.043 595.74 408.97 595.625C405.685 595.274 403.014 591.467 400.787 589.194C399.066 587.437 397.331 585.62 395.76 583.689C394.844 584.187 393.589 584.098 393.007 582.994C389.984 577.272 381.705 581.237 377.123 582.594L370.561 584.536C367.28 585.509 364 586.486 360.726 587.48C351.727 590.212 342.773 593.27 333.692 595.78C334.505 596.672 334.393 598.261 332.849 598.865C325.741 601.654 317.944 603.096 310.559 605.009C305.897 606.218 301.238 607.434 296.58 608.658C295.781 609.951 295.207 611.415 294.965 613.118C294.076 619.382 295.79 626.609 297.46 632.668L297.712 633.572C299.085 638.443 301.104 644.414 305.307 647.489C306.333 648.239 307.64 648.761 308.957 648.879C317.184 644.645 325.411 640.411 333.644 636.185C335.169 635.402 336.578 636.462 336.92 637.723C339.822 637.246 342.718 636.496 345.356 635.601C349.788 634.096 353.249 631.225 357.404 629.24C365.443 625.401 373.653 630.117 380.852 633.703L382.51 634.518C385.738 636.084 392.454 639.093 394.003 634.81C395.501 630.666 390.765 626.238 387.706 624.374C384.06 622.15 379.814 620.96 375.693 619.969C373.34 619.403 370.959 618.941 368.563 618.604C365.845 618.221 363.038 618.279 360.421 617.398C359.121 616.96 358.921 614.895 360.421 614.554C364.449 613.638 369.257 614.638 373.461 615.659L375.658 616.201C379.893 617.24 384.168 618.544 388.026 620.617C390.831 622.124 393.791 624.414 395.725 627.218C397.405 625.658 399.495 625.711 401.673 626.289L402.854 626.618C404.806 627.159 406.388 627.531 408.287 627.156C408.541 625.775 408.798 624.393 409.073 623.011C411.78 609.428 414.747 595.896 418.022 582.437C423.67 559.221 430.206 536.261 437.575 513.535L438.314 511.263C440.014 506.065 441.382 500.402 444.121 495.627C446.713 491.112 450.864 488.511 455.797 487.133C461.395 485.571 467.277 484.753 472.987 483.697C474.261 483.462 475.538 483.238 476.813 483.007C475.736 481.062 474.931 478.854 474.207 477.16L474.08 476.866C472.524 473.318 471.126 469.707 469.776 466.076L468.766 463.346C466.328 456.773 463.812 450.308 460.385 444.16C456.777 437.69 451.991 432.401 446.026 428.023C433.862 419.096 419.201 414.542 407.403 405.002C406.92 404.612 407.54 403.943 408.03 404.191C415.996 408.193 424.596 410.914 432.882 414.172L434.516 414.817C441.065 417.413 447.716 420.238 453.385 424.441C459.704 429.127 464.682 434.947 468.423 441.868C472.11 448.69 474.468 456.326 477.069 463.613L477.765 465.555C478.814 468.466 479.898 471.369 481.14 474.202C482.126 476.452 483.965 479.019 484.801 481.589C487.089 481.192 489.376 480.794 491.666 480.412C541.267 472.132 591.422 467.266 641.689 465.843C643.655 465.787 644.673 467.664 644.383 469.379C639.559 497.9 635.272 526.518 630.568 555.06C628.515 567.517 626.421 579.965 624.278 592.407C623.192 598.71 621.937 604.989 620.909 611.302C620.079 616.4 619.476 621.538 618.051 626.518C616.773 630.983 614.811 635.288 611.589 638.695C608.117 642.367 603.27 644.145 598.39 644.984C586.004 647.116 573.3 647.986 560.813 649.406L494.334 656.968C495.306 665.797 495.378 674.489 494.933 683.42L494.679 688.296C494.471 692.218 494.223 696.146 493.659 700.027C492.953 704.896 490.725 709.019 487.444 712.656C484.431 715.996 480.771 718.846 477.21 721.576C473.514 724.412 469.695 727.149 465.35 728.902L464.786 729.126C460.974 730.614 453.823 732.918 448.612 732.076C449.293 735.488 450.611 739.157 449.443 742.533C448.901 744.101 446.85 744.883 445.594 743.549C443.105 740.905 442.911 737.413 442.322 733.964C441.708 730.375 441.18 726.773 440.71 723.162C439.801 716.18 439.094 709.135 438.879 702.094C438.657 694.864 438.742 687.623 439.132 680.401C439.332 676.692 439.581 672.985 440.051 669.299C440.252 667.728 440.458 666.155 440.692 664.587C440.778 664.015 440.873 663.446 440.975 662.878L435.008 663.552C425.859 664.573 416.705 665.495 407.491 665.638C406.4 665.655 405.56 665.158 405.012 664.435C404.427 665.387 403.409 666.068 401.952 666.062C389.084 666.014 377.102 661.807 365.399 656.849C359.5 654.349 353.692 651.643 347.784 649.165C342.27 646.851 336.375 645.201 330.993 642.595L316.853 650.011C316.749 650.376 316.616 650.72 316.474 651.009C315.554 652.888 313.738 653.907 311.885 654.675C310.105 655.413 308.262 655.643 306.467 655.457C295.742 661.076 285.016 666.689 274.282 672.29L263.545 677.886C242.155 689.022 220.848 700.34 199.323 711.215L197.738 712.012C190.303 715.74 182.319 719.518 174.068 722.338C173.921 724.426 174.014 726.457 174.189 728.667L174.231 729.149C174.477 731.761 175.005 735.033 172.909 736.893C171.819 737.86 169.872 737.863 169.131 736.405C167.785 733.761 168.993 729.593 169.419 726.721C169.57 725.699 169.755 724.649 170.027 723.63C160.568 726.446 150.823 727.811 141.197 726.23C131.825 724.692 124.567 718.789 118.715 711.568C112.539 703.949 108.151 695.069 105.796 685.55C103.117 674.718 102.942 663.532 103.005 652.437C103.071 640.622 103.509 628.749 104.946 617.013C103.371 616.643 101.625 616.323 100.034 616.433C99.2454 617.694 97.7166 618.225 96.3351 618.061C93.3309 621.374 100.951 624.76 103.386 625.608C104.232 625.902 104.141 627.275 103.166 627.234L102.552 627.205C98.7888 627.005 94.9013 626.362 92.689 622.866C90.9162 620.064 91.4488 616.744 93.5621 614.458C94.958 601.262 98.295 588.412 101.401 575.54C104.449 562.905 107.838 550.351 111.431 537.861L113.041 532.27C118.698 512.686 124.61 492.943 132.412 474.137C136.309 464.746 140.797 455.528 146.881 447.34C152.552 439.708 159.248 433.176 166.944 427.598C181.291 417.198 198.127 410.914 214.668 404.927L215.409 404.659C223.981 401.559 232.532 398.421 241.006 395.062C248.501 392.092 255.681 388.325 263.141 385.31C262.899 384.87 262.664 384.425 262.439 383.975L262.301 384.091C262.278 384.11 262.254 384.128 262.228 384.145C261.478 384.665 260.374 384.41 259.756 383.826C258.01 382.18 258.601 380.352 259.766 378.644L259.918 378.427C261.343 376.43 262.614 374.32 263.93 372.252L264.753 370.958C266.961 367.503 269.281 364.024 272.225 361.168C273.588 359.845 275.08 358.855 276.662 358.117C276.526 357.831 277.712 357.247 278.048 357.541C283.058 355.708 288.822 356.092 294.284 356.597M491.118 657.333L484.152 658.125C476.489 658.997 468.823 659.84 461.156 660.675L444.503 662.485C444.46 663.434 444.345 664.362 444.324 665.079C444.215 668.775 444.134 672.472 444.058 676.169C443.904 683.579 444.072 690.997 444.56 698.393C445.033 705.56 445.656 712.727 446.624 719.845L446.822 721.268L446.937 722.016C447.727 722.093 448.503 722.468 449.148 723.239C450.557 724.92 455.657 723.286 457.649 722.577C460.925 721.412 464.009 719.443 466.856 717.468C469.636 715.54 472.138 713.292 474.544 710.924L476.512 708.977C478.469 707.032 480.429 704.96 481.628 702.514C483.255 699.196 483.465 695.123 483.942 691.51C484.529 687.065 485.229 682.621 485.968 678.198M288.912 610.678L288.19 610.868C261.945 617.841 235.739 625.019 209.413 631.684C196.385 634.983 183.296 638.042 170.252 641.278L168.14 641.806C157.85 644.406 147.436 647.536 139.556 654.999C139.265 655.273 138.843 654.851 139.116 654.559C147.609 645.52 159.688 641.693 171.285 638.376C173.429 637.763 175.575 637.164 177.719 636.554C161.947 630.933 145.926 626.041 129.535 622.553C125.315 621.655 121.045 620.995 116.828 620.093C113.886 619.464 111.014 618.555 108.104 617.8L105.815 617.224L105.784 624.458C105.746 634.703 105.764 644.94 106.287 655.184L106.386 657.082C106.996 668.482 107.948 680.118 111.994 690.867C115.282 699.602 120.523 707.831 127.376 714.193C130.844 717.412 134.572 719.918 139.181 721.155C143.46 722.304 147.943 722.438 152.342 722.132C173.442 720.66 192.225 709.2 210.554 699.711C240.533 684.191 270.516 668.679 300.526 653.219C299.714 652.664 298.951 652.025 298.256 651.307C294.231 647.152 292.109 641.463 290.715 635.954C289.23 630.09 288.343 623.805 288.24 617.751M327.098 659.21C327.362 659.067 327.669 659.246 327.682 659.545C327.774 661.836 326.508 664.097 325.561 666.161L325.461 666.382C324.311 668.939 323.052 671.462 321.75 673.946C319.148 678.907 316.444 683.816 313.621 688.655C307.945 698.391 301.637 707.716 294.182 716.193C292.498 718.108 289.728 715.652 290.809 713.591C296.019 703.652 302.093 694.267 308.346 684.965C311.476 680.307 314.603 675.645 317.764 671.008C319.083 669.073 320.419 667.145 321.79 665.247L322.617 664.111M638.364 471.536C612.028 472.331 585.722 474.048 559.51 476.74C535.133 479.242 510.846 482.574 486.695 486.727C481.651 487.594 476.613 488.497 471.581 489.436L468.563 490.004C463.531 490.957 457.383 491.351 452.902 494.039C448.178 496.873 446.901 502.795 445.329 507.679C443.482 513.423 441.681 519.183 439.928 524.957C432.969 547.883 426.613 571.008 420.942 594.285C418.127 605.839 415.63 617.458 412.998 629.054C410.66 639.358 408.08 649.544 405.385 659.744C405.718 659.486 406.125 659.29 406.617 659.185C420 656.338 433.661 655.1 447.245 653.528L448.559 653.374C462.611 651.722 476.662 650.082 490.722 648.501L583.812 638.034C589.302 637.417 595.183 637.333 600.526 635.861C609.609 633.355 611.739 623.201 613.263 615.114L613.309 614.87C617.904 590.438 621.561 565.793 625.846 541.298M407.552 631.342C403.938 631.104 398.992 627.794 396.25 628.032C397.689 630.447 398.339 633.201 397.509 636.142C395.2 644.328 384.759 640.093 379.73 637.592C375.607 635.541 371.625 633.031 367.06 632.07C361.888 630.983 358.385 633.039 354.015 635.409C350.427 637.356 346.519 638.754 342.499 639.477C340.362 639.862 338.332 639.903 336.306 639.753C336.184 639.852 336.047 639.945 335.89 640.027L334.818 640.589C339.665 640.811 344.601 642.307 349.112 643.676C353.785 645.094 358.374 646.804 362.938 648.552L367.427 650.277C378.502 654.518 389.966 658.544 401.952 658.509C402.813 658.507 403.519 658.745 404.075 659.134M387.331 605.695C390.902 605.259 394.197 605.727 397.05 608.051C400.491 610.853 402.803 615.501 407.749 615.806C409.191 615.895 409.526 617.922 408.093 618.346C404.411 619.436 401.43 617.444 398.921 614.858L397.235 613.096C394.756 610.53 392.47 608.546 388.263 608.699C383.758 608.863 379.246 609.904 374.77 610.433C369.7 611.033 364.631 611.544 359.545 611.985C359.308 612.005 359.268 611.633 359.489 611.579L365.186 610.161M383.885 591.101L384.474 591.042C389.659 590.539 394.401 590.519 399.031 593.308L399.919 593.845C404.094 596.382 408.638 599.371 411.249 603.479C411.676 604.151 410.97 604.942 410.255 604.771C405.237 603.567 401.569 599.886 397.35 597.131C392.614 594.04 387.722 594.549 382.323 595.03C377.095 595.495 371.87 596.134 366.693 597.005C361.829 597.823 356.949 599.114 352.036 599.526L352.037 599.516C351.475 599.515 351.155 598.672 351.728 598.387C356.714 595.897 362.489 594.719 367.913 593.582M541.389 539.864C540.888 537.467 543.836 536.355 545.203 538.257L545.493 538.658C548.446 542.702 552.715 547.777 552.498 552.92C555.093 552.977 557.784 554.554 558.795 556.895C559.263 557.978 559.421 559.262 559.318 560.591C561.677 560.774 564.249 562.323 565.692 563.83C568.082 566.33 568.271 569.862 566.556 572.782C562.817 579.148 554.649 581.464 547.753 581.981L547.507 581.999C540.385 582.491 530.123 582.358 525.239 576.248C520.528 570.355 525.735 565.584 531.074 562.993C529.684 561.724 528.964 559.904 529.641 557.986C530.829 554.613 535.024 553.31 537.395 550.966C540.285 548.107 542.194 544.186 541.433 540.087M545.303 545.046C544.517 548.459 542.588 551.58 539.9 554.053C538.873 554.999 537.748 555.842 536.554 556.565L536.41 556.648C535.35 557.243 532.745 558.358 532.945 559.693C533.152 561.065 537.397 563.212 538.554 563.213C538.817 563.213 538.966 563.624 538.697 563.744C536.6 564.67 534.769 565.066 532.719 564.088C531.349 565.486 530.018 566.933 528.7 568.368C526.369 570.906 527.167 573.585 529.921 575.475C534.346 578.511 541.073 578.437 546.237 578.217C551.434 577.995 556.989 576.836 561.048 573.375L561.225 573.221C563.432 571.259 565.447 567.934 562.068 566.045C560.745 565.305 559.315 565.348 558.059 564.989C556.884 567.293 554.977 569.138 552.65 569.494C550.769 569.782 549.474 567.418 551.185 566.288L551.569 566.049C553.717 564.678 555.55 562.567 555.501 559.817C555.468 557.908 552.802 555.498 551.066 557.291L550.986 557.377C549.533 559.015 546.973 556.951 547.929 555.136L547.975 555.053M206.348 450.138C206.341 449.728 206.918 449.574 207.12 449.929C210.493 455.863 212.256 463.137 214.054 469.675C215.936 476.524 217.455 483.442 218.82 490.411C221.585 504.522 223.058 518.553 223.158 532.935C223.172 534.989 219.826 535.535 219.498 533.431C217.325 519.441 215.244 505.436 213.054 491.45C211.952 484.415 210.67 477.408 209.443 470.394M239.745 460.474C239.496 459.655 240.687 459.382 240.992 460.13C247.762 476.746 250.055 495.576 245.708 513.106C245.043 515.788 241.115 514.626 241.617 511.978M327.071 445.709C327.037 445.097 327.832 445 328.132 445.422C331.34 449.941 332.67 455.993 338.298 458.329C341.108 459.495 344.27 459.292 346.753 461.261C348.413 462.579 349.685 464.658 348.44 466.653C348.038 467.298 346.913 467.62 346.368 466.92C345.572 465.9 345.151 464.678 344.07 463.913C342.545 462.834 340.488 462.767 338.739 462.26C336.478 461.605 334.484 460.457 332.851 458.753M380.662 370.334C380.993 370.166 381.31 370.274 381.522 370.56C381.824 370.967 381.787 371.363 381.417 371.642C381.911 372.652 382.494 375.18 382.577 375.548C382.915 377.041 383.275 378.524 383.65 380.006C384.409 382.996 385.073 386.008 385.832 388.999C386.637 392.169 387.596 395.305 388.663 398.396C388.731 398.596 388.807 398.8 388.887 399.008L389.008 399.321L389.038 399.273C389.255 398.931 389.706 399.17 389.653 399.532C389.603 399.862 389.536 400.191 389.48 400.521L389.592 400.816C390.29 402.694 390.768 404.672 389.487 406.329C389.008 406.949 388.481 407.316 387.824 407.425C386.771 410.897 385.45 414.303 384.035 417.575L383.621 418.53C381.54 423.304 379.32 428.015 376.007 432.079C372.39 436.516 367.414 439.545 364.263 444.407C362.797 446.669 361.777 449.047 360.949 451.601L360.638 452.57C360.05 454.377 359.372 456.127 357.677 457.187C357.136 457.525 356.326 457.417 355.89 456.956C352.415 453.28 356.053 446.416 358.149 442.858C361.062 437.908 365.278 434.742 369.5 431.009C374.051 426.984 376.953 421.6 379.761 416.296C381.481 413.047 383.141 409.727 384.889 406.464C383.063 404.85 382.478 401.644 381.86 399.416L381.803 399.216C380.78 395.648 379.968 391.987 379.455 388.31C378.961 384.774 378.755 381.289 378.885 377.734L378.923 376.828M387.453 387.162C387.049 386.609 387.717 385.982 388.271 386.098C391.637 386.793 394.927 388.831 397.948 390.478L398.271 390.653C400.682 391.953 403.109 393.545 404.375 396.071C405.752 398.817 405.638 401.978 405.451 404.962L405.433 405.241C405.203 408.819 405.166 412.536 404.408 416.049C404.021 417.847 402.392 418.354 401 417.929C399.343 423.16 394.688 427.014 391.288 431.142C386.953 436.404 387.769 443.51 388.222 449.848C388.406 452.414 385.213 453.143 383.569 451.774L379.78 448.627C379.149 448.102 378.519 447.576 377.89 447.048C377.352 446.595 376.818 446.138 376.289 445.676L375.499 444.979C375.149 444.665 373.603 442.938 373.151 442.867C372.056 442.693 369.454 445.578 368.564 446.483L368.451 446.596C366.776 448.239 365.262 450.006 363.852 451.881C363.592 452.225 363.085 451.939 363.27 451.541C364.534 448.835 366.003 446.248 367.748 443.826L368.1 443.344C369.261 441.78 370.819 439.018 372.868 438.556C375.37 437.993 377.868 440.501 379.688 441.893L379.803 441.98C380.669 442.63 381.525 443.291 382.38 443.957C382.29 439.238 382.886 434.47 385.323 430.403C387.041 427.535 389.615 425.411 391.818 422.946C394.27 420.202 395.551 416.829 397.771 413.971C398.057 413.603 398.451 413.405 398.877 413.342C398.963 411.045 399.301 408.724 399.563 406.451L399.639 405.771C399.903 403.301 400.528 400.285 399.318 397.972C398.176 395.787 395.555 394.245 393.614 392.763L392.03 391.534M278.217 361.048C277.204 361.634 276.257 362.363 275.397 363.275C272.692 366.144 270.758 369.714 268.876 373.149C267.863 374.999 266.886 376.869 265.864 378.714C265.42 379.517 264.963 380.312 264.501 381.105C264.287 381.47 263.652 382.196 263.338 382.644C263.687 383.133 264.049 383.616 264.418 384.093C264.558 384.275 274.262 394.843 277.644 398.98C282.823 405.316 287.453 412.008 291.411 419.171C295.287 426.186 298.237 433.613 301.828 440.763C303.625 444.343 305.632 447.898 308.19 450.996C308.289 451.117 308.393 451.231 308.494 451.35C309.47 448.713 311.972 445.889 313.201 444.268L313.316 444.115C316.102 440.359 319.045 436.716 322.052 433.135C324.799 429.865 327.615 426.666 330.499 423.519L331.584 422.342C333.594 420.171 336.147 416.924 339.088 415.373C338.773 414.811 338.408 414.255 337.989 413.707C335.233 410.105 331.336 407.492 327.492 405.134L324.998 403.617C315.6 397.891 306.348 391.899 298.189 384.458C293.872 380.521 289.615 376.397 285.987 371.805L284.703 370.182M293.898 358.214C289.497 358.583 284.744 358.495 280.677 359.929C284.292 363.346 287.729 367.037 291.26 370.512C291.574 368.161 292.217 365.84 292.761 363.548" fill="black"/>
<path fill-rule="evenodd" clip-rule="evenodd" d="M338.91 140.868C370.25 140.868 402.665 165.156 414.153 180.655C423.811 193.686 429.011 252.611 429.011 292.433C429.011 300.762 433.608 316.462 432.266 324.428C427.351 353.621 405.934 378.104 363.546 378.104C321.158 378.104 290.767 361.305 259.261 316.2C243.974 316.2 236.566 304.479 236.458 285.981C236.35 267.484 251.214 260.754 251.214 260.754C251.214 260.754 245.914 187.754 259.261 168.749C272.608 149.743 307.571 140.868 338.91 140.868Z" fill="white"/>
<path fill-rule="evenodd" clip-rule="evenodd" d="M325.724 130.546C345.511 128.542 364.9 130.226 384.4 133.708C385.891 133.978 386.735 134.956 387.049 136.13C396.234 136.55 405.429 137.224 414.602 137.726C417.931 137.908 419.818 141.196 418.3 144.166C417.997 144.756 417.682 145.33 417.362 145.904L417.764 145.771C420.523 144.886 423.504 144.45 426.193 145.855C429.615 147.643 430.956 151.588 430.2 155.219C430.006 156.146 429.681 157.035 429.311 157.902C430.062 157.852 430.818 157.869 431.569 157.968C435.565 158.498 438.534 161.561 438.744 165.639C439.053 171.797 435.085 178.045 430.41 182.453C431.088 183.85 431.348 185.495 431.066 187.161C430.503 190.456 428.076 192.429 425.262 193.716C426.435 197.441 426.99 201.336 426.663 205.317C426.553 206.646 425.391 207.744 424.164 208.013C428.737 220.603 431.052 234.12 432.717 247.291C433.904 256.663 434.489 266.088 434.56 275.53C434.595 279.793 434.524 284.06 434.346 288.324L434.273 289.922C434.053 294.531 434.042 299.37 433.214 303.929C436.04 308.735 437.177 314.702 437.657 320.087C438.253 326.754 437.309 333.63 435.206 339.971C427.269 363.932 403.315 379.053 379.256 382.983C356.986 386.62 331.216 381.725 318.201 361.499C317.997 361.179 318.433 360.914 318.687 361.124C327.998 368.695 338.799 372.072 350.534 373.717C370.823 376.554 393.628 371.741 409.91 358.983C417.726 352.857 423.361 343.939 425.84 334.342C427.104 329.436 427.54 324.32 427.042 319.271C426.535 314.15 424.267 309.779 422.837 304.939C422.357 303.305 422.865 301.787 423.864 300.706C424.145 296.777 424.808 292.814 425.061 288.897C425.343 284.443 425.514 279.989 425.575 275.53C425.691 266.281 425.304 257.015 424.526 247.805C423.102 230.94 419.321 214.484 417.103 197.762C416.281 198.499 415.103 198.801 413.869 198.158L413.741 198.088L413.068 197.702C413.029 197.702 412.985 197.707 412.946 197.712C408.338 198.16 403.558 197.52 399.143 196.145C394.522 194.711 390.234 192.503 386.403 189.562C385.675 193.253 385.371 196.984 385.366 200.748C385.361 203.099 382.872 204.319 380.896 203.314C372.136 198.866 363.769 193.74 355.827 187.978C354.899 192.73 353.972 197.481 353.039 202.238C352.681 204.07 350.345 204.81 348.85 203.938C342.9 200.477 337.762 195.947 333.578 190.56C332.743 192.157 331.905 193.754 331.062 195.348L329.792 197.734C328.539 200.08 326.861 202.674 324.118 203.424C321.215 204.219 318.791 202.338 317.815 199.71C317.517 198.894 317.241 198.055 316.987 197.21C314.514 202.856 311.721 208.375 308.564 213.64C303.829 221.536 298.143 228.572 292.475 235.791C290.753 237.982 287.806 235.89 287.569 233.76C287.431 232.508 287.315 231.249 287.215 229.996C283.912 236.66 280.466 243.262 276.711 249.673L277.249 251.779V251.779C278.798 258.003 280.084 264.271 281.483 270.528C281.934 272.547 280.862 275.433 278.503 275.777C275.684 276.187 273.018 277.627 270.131 276.636C266.984 275.556 266.362 272.836 264.876 270.258C264.579 269.744 264.234 269.272 263.864 268.824L263.769 268.946V268.946C263.537 269.25 262.985 268.919 263.123 268.572L263.285 268.17V268.17C262.008 266.815 260.481 265.685 259.076 264.469C255.738 263.907 251.983 264.523 249.683 265.879C244.445 268.968 242.039 275.337 241.99 281.193C241.929 288.047 244.053 295.751 247.641 301.611C249.22 304.189 251.384 306.517 254.242 307.66C257.08 308.796 260.154 308.443 263.041 309.513C264.95 310.226 266.126 312.345 264.972 314.265C264.895 314.398 264.807 314.519 264.723 314.646L265.582 315.786C266.173 316.575 266.788 317.42 267.362 318.299C268.83 319.988 270.376 321.616 271.872 323.277C274.636 326.34 277.319 329.486 280.04 332.592C282.607 335.523 285.322 338.276 288.121 340.986C290.764 343.553 294.065 345.71 296.493 348.448C298.855 351.119 299.496 355.781 295.61 357.327C291.311 359.041 287.505 355.024 284.611 352.345L284.489 352.233C279.184 347.352 274.393 341.774 270.588 335.632C266.82 338.197 261.369 338.442 257.616 335.877C255.641 334.528 254.126 332.261 253.39 329.794C252.696 329.949 252.002 330.04 251.325 330.03C250.977 330.232 250.628 330.428 250.274 330.612C247.475 332.068 244.037 331.417 242.757 328.321C241.591 325.51 242.792 322.317 243.843 319.609L244.06 319.05C244.656 317.505 245.312 315.822 246.129 314.238C243.855 312.527 241.912 310.402 240.268 307.985C234.743 299.845 231.983 287.941 233.203 278.229C233.937 272.368 236.691 266.298 241.2 262.346L241.035 261.916V261.916C239.771 258.71 238.622 255.492 237.878 252.104C237.006 248.142 236.58 244.036 236.194 240.002C235.378 231.481 235.598 222.767 236.686 214.28C238.728 198.303 243.905 182.62 253.095 169.325C250.489 166.207 248.425 162.537 249.501 158.316C249.993 156.378 251.113 154.541 252.802 153.431C253.734 152.819 254.844 152.725 255.777 152.218L256.058 152.063C256.467 151.824 256.154 151.85 255.91 150.739C254.944 146.301 255.744 142.014 260.629 140.54C265.226 139.155 269.576 142.097 272.297 145.601C279.417 140.551 288.799 137.908 297.051 135.662C306.434 133.117 316.059 131.528 325.724 130.546ZM248.816 279.382C248.783 275.768 252.21 273.538 255.583 274.129C257.848 274.523 259.737 275.875 261.511 277.272L262.376 277.956C264.537 279.652 267.017 281.48 268.305 283.88C270.192 287.423 266.202 292.191 262.477 289.708C259.921 287.995 258.283 285.251 256.607 282.703L256.433 282.44C255.672 281.297 255.004 280.083 253.96 279.167L253.735 278.97C253.392 278.677 253.023 278.411 252.58 278.284C251.726 278.038 250.143 278.382 249.766 279.4L249.732 279.504C249.594 280.017 248.822 279.907 248.816 279.382Z" fill="black"/>
<path fill-rule="evenodd" clip-rule="evenodd" d="M391.804 329.414C388.058 330.887 383.632 331.234 379.765 329.98C376.068 328.78 372.711 326.11 370.68 322.752C368.871 319.76 368.115 316.211 369.184 312.672C369.235 312.503 369.401 312.395 369.562 312.352C370.436 313.149 370.977 313.939 371.517 314.726C372.427 316.053 373.34 317.367 374.592 318.501C376.414 320.151 378.87 321.492 381.306 321.934C383.692 322.368 386.134 321.984 388.27 320.842C389.569 320.149 390.62 319.221 391.66 318.289C392.793 317.274 393.907 316.244 395.467 315.67C396.717 315.211 398.03 315.599 399.039 316.367C400.123 317.193 400.903 318.486 400.86 319.837C400.793 321.931 399.876 323.677 398.546 325.118C396.748 327.066 394.205 328.47 391.804 329.414ZM387.358 277.236C391.526 279.769 397.876 285.676 393.392 291.955C388.115 297.492 380.516 291.144 376.771 288.272C373.299 286.047 369.398 291.77 372.62 294.369C399.678 314.399 410.658 277.898 389.466 274.258C387.132 273.856 386.266 276.452 387.358 277.236ZM343.519 242.138C349.199 241.867 354.205 244.417 359.619 245.576C364.622 246.648 369.55 246.005 374.416 244.642C382.312 242.429 385.576 254.515 377.787 256.87C372.116 258.585 366.144 258.705 360.324 257.82C355.154 257.035 350.82 254.518 345.891 253.053C341.66 251.796 336.684 252.318 332.216 252.91L330.482 253.143C327.905 253.491 325.313 253.839 322.761 254.343C320.547 254.78 318.336 255.581 316.076 255.674C315.819 255.685 315.602 255.351 315.764 255.129C318.389 251.525 323.449 248.681 327.474 246.785L327.747 246.657C332.716 244.341 337.987 242.402 343.519 242.138ZM341.437 268.713L341.436 268.589C341.444 265.07 343.494 257.035 348.561 257.035C351.726 257.035 353.648 262.503 353.98 268.14L353.992 268.37C354.139 271.875 353.177 279.535 348.561 279.535C343.895 279.535 341.485 272.28 341.437 268.713V268.713ZM416.034 268.713L416.035 268.589C416.027 265.07 413.977 257.035 408.911 257.035C405.824 257.035 403.92 262.233 403.519 267.718L403.491 268.14C403.291 271.527 404.19 279.535 408.911 279.535C413.576 279.535 415.986 272.28 416.034 268.713V268.713ZM415.956 237.852L416.319 237.86C422.24 238.065 428.331 241.572 429.911 247.464C429.993 247.769 429.616 247.975 429.393 247.765C424.524 243.208 417.976 247.563 413.101 249.845L411.31 250.673C405.025 253.596 397.877 257.033 390.898 254.855C387.584 253.82 385.479 250.415 386.424 246.976C387.265 243.916 390.96 241.344 394.159 242.448L394.304 242.501C396.904 243.496 400.1 242.488 402.785 241.495L404.991 240.667C408.537 239.321 412.1 237.816 415.956 237.852V237.852Z" fill="black"/>
</svg>
